<?xml version="1.0" encoding="UTF-8"?><svg id="uuid-e1948154-cbd5-49fd-8425-141447f3202f" xmlns="http://www.w3.org/2000/svg" viewBox="0 0 89.24 22.4"><g id="uuid-7701e286-e99e-4196-92c6-6553098e9176"><path d="m6.2,5.6s0-.04-.04-.07c-.02-.04-.04-.04-.09-.02-.47.16-.96.22-1.49.2-.27.02-.51.09-.76.18-.25.09-.49.18-.74.25-.16.07-.33.13-.49.2.11-.13.25-.27.38-.38,1.14-.91,2.19-1.9,3.17-2.99.16-.11.18-.22.04-.36-.11-.25-.04-.36.2-.38.25-.04.47-.09.71-.13.04-.02.11-.02.16.02.4.29.78.62,1.14.98.13.11.22.27.31.47.07.18.04.36-.09.49s-.29.25-.45.33l-.6.38c-.16.09-.18.18-.07.29.13.29.13.56,0,.83-.11.47-.13.94-.11,1.41.04.02.09.02.13.02.25-.13.47-.29.67-.49.29-.18.56-.16.8.07.13.11.22.27.27.42.11.18.11.33-.02.47-.13.11-.27.2-.42.27-.42.22-.83.42-1.23.6-.07.04-.11.11-.13.18-.02,1.23-.04,2.45-.07,3.68-.02.2.04.22.2.09.67-.56,1.36-1.14,2.03-1.7.04-.02.09-.04.13-.07.02-.02.04-.02.07-.02,0,.02,0,.04-.04.07-.54.65-1.09,1.29-1.63,1.92-.25.27-.4.58-.45.94-.02.16-.04.31-.11.49-.04.16-.07.33-.09.49-.04.56-.07,1.12-.04,1.67v3.48c.02.45-.13.83-.47,1.09-.11.07-.22.07-.31,0-.2-.16-.33-.36-.47-.56-.11-.2-.2-.4-.27-.65-.02-.13,0-.27.04-.4.07-.18.13-.36.18-.56v-2.72s-.02-.09-.02-.13c-.07.02-.11.04-.16.07-.54.47-1.07.89-1.61,1.34l-.65.47c-.18.16-.31.31-.4.51-.2.36-.42.36-.67.04-.16-.36-.33-.69-.49-1.05l-.04-.09c-.09-.09-.16-.18-.18-.31.09-.18.22-.36.36-.54.2-.2.36-.42.49-.67.76-1.52,1.52-3.03,2.28-4.57.22-.54.47-1.07.74-1.63.02-.02.04-.07.04-.13-.07.02-.11.04-.13.07-.89.58-1.76,1.18-2.61,1.81-.2.2-.38.42-.49.67-.09.09-.22.16-.36.16-.25-.13-.45-.31-.62-.51-.13-.18-.27-.36-.36-.56-.02-.11-.02-.2-.02-.31.02-.16.07-.31.11-.47.04-.25.18-.29.38-.13.11.11.22.16.36.13.13-.02.25-.07.36-.13.89-.56,1.78-1.09,2.7-1.63.04-.02.09-.04.13-.04.71-.2,1.03-.65.89-1.38,0-.11-.02-.22-.02-.36h.04v-1.09Zm-.04,7.16v-.8c0-.07-.02-.13-.02-.22-.07.07-.11.11-.16.18-.02.02-.04.07-.07.11-.56.98-1.09,1.99-1.63,2.99l-.04.09s.09-.02.13-.07c.36-.25.74-.49,1.12-.74.56-.27.78-.71.69-1.32v-.22h-.02ZM14.03,2.81c0-.09-.02-.18-.07-.25-.07-.07-.13-.13-.2-.22-.09-.09-.16-.18-.25-.29-.09-.11-.09-.22-.02-.36.31-.33.67-.42,1.09-.31.33.18.65.36.98.56.4.2.56.54.51.96-.04.33-.09.67-.09,1-.02.87-.02,1.72-.02,2.59.04.04.09.09.16.09.22-.13.45-.27.65-.45.18-.13.38-.16.56-.04.33.2.67.38,1,.58.25.25.2.42-.13.54-.67.27-1.34.54-2.01.76-.18.07-.25.2-.27.38-.04.78-.09,1.56-.16,2.32-.02.16.04.2.2.18.85-.18,1.72-.33,2.59-.49.04,0,.09,0,.13-.02.31-.16.62-.16.89,0,.29.13.56.31.83.51.2.13.36.31.49.54.11.29,0,.45-.31.45-.45-.04-.92-.09-1.36-.11-.56-.02-1.12,0-1.67.04-.6.11-1.2.29-1.78.49-.11.04-.18.09-.22.18-.42,1.27-1,2.48-1.7,3.59-.33.62-.76,1.2-1.27,1.72-.54.45-1.16.78-1.83,1-.74.29-1.52.51-2.3.69h-.22c.07-.04.13-.09.2-.13.69-.38,1.34-.83,1.94-1.34.62-.49,1.16-1.09,1.63-1.74.58-.85,1.03-1.78,1.36-2.79.02-.07.04-.13.04-.2-.07,0-.13.02-.2.02-1.05.36-2.03.87-2.92,1.54-.13.11-.22.25-.31.42-.04.2-.16.27-.31.2-.29-.07-.56-.16-.85-.27-.29-.11-.54-.27-.74-.49-.11-.16-.09-.29.09-.4.78-.42,1.58-.83,2.36-1.23.87-.47,1.79-.89,2.7-1.27.45-.13.67-.42.67-.89.02-.58.04-1.16.11-1.74.02-.2-.07-.27-.25-.16-.18.04-.33.09-.47.16-.4.18-.8.33-1.23.47-.27.09-.49.27-.67.51-.25.31-.51.6-.8.87-.04.04-.11.04-.16,0-.25-.07-.45-.2-.62-.4-.16-.22-.29-.45-.38-.67,0-.16.04-.27.13-.4.96-1.43,1.47-3.03,1.49-4.77,0-.25-.09-.4-.31-.51l-.09-.11c-.09-.09-.16-.2-.2-.31.11-.04.22-.09.36-.11.33-.04.62.04.87.22.25.18.49.38.69.62.18.16.22.36.16.62l-.04.65c-.2.76-.38,1.52-.56,2.25,0,.11-.02.2-.04.29.07-.02.16-.04.25-.04.56-.25,1.14-.47,1.7-.74.16-.07.25-.18.27-.36.04-.47.07-.94.07-1.41h.04c-.04-1-.11-1.99-.18-2.99Zm6.47,16.55c-.11.13-.27.22-.47.22-.29-.09-.56-.25-.8-.42-1.16-1.07-2.34-2.14-3.52-3.21-.09-.07-.2-.16-.33-.2-.11-.04-.18-.16-.18-.29l-.09-.13s.11-.04.2-.04c.96.16,1.85.45,2.72.85.87.4,1.63.98,2.3,1.67.18.22.31.47.4.76-.04.25-.11.51-.22.8Z" style="fill:#231815;"/><path d="m26.95,7.27c-.6.71-1.2,1.45-1.83,2.14-.18.29-.38.58-.56.91-.04.07-.11.13-.18.18l-.04-.2c.11-.42.2-.83.29-1.25.09-.4.2-.8.38-1.18.45-.85.8-1.74,1.12-2.63.02-.13.04-.25.09-.38.13-.33.02-.6-.29-.8-.07-.07-.11-.16-.16-.27.07-.13.16-.2.31-.22.29-.02.56.04.83.16.25.13.47.29.67.51s.29.47.31.76c-.04.87-.36,1.63-.94,2.28Zm.85,5.06c-.11.33-.18.65-.2.98-.02.31-.04.65-.09.98-.02.62-.11,1.23-.25,1.83-.09.33-.25.65-.47.94-.18.13-.38.18-.58.11-.31-.29-.58-.6-.78-.96-.04-.16,0-.29.13-.36.6-.67.89-1.45.85-2.34l.04-.56c.07-.6-.11-1.09-.6-1.52-.2-.25-.38-.49-.51-.78,0-.04,0-.09.02-.13.04,0,.09.02.13.04.56.54,1.12,1.05,1.7,1.61.07,0,.13-.02.22-.07.38-.62.76-1.27,1.09-1.9.13-.2.25-.38.38-.56,0,.07,0,.13-.02.18-.36.83-.71,1.67-1.07,2.5Zm4.06-7.18l.13-.22c-.09,0-.18.02-.27.04-.27.07-.56.13-.8.2-.25.07-.4-.02-.49-.27-.09-.25-.16-.49-.22-.76-.04-.11-.02-.22,0-.33.42-1.09,1-2.12,1.74-3.06.04-.07.11-.13.18-.18.09.11.13.2.13.33-.04.16-.13.29-.2.42-.27.78-.49,1.54-.74,2.32,0,.04-.02.11-.02.16h.25c.31-.18.65-.33.98-.51.31-.2.58-.45.78-.76.07-.13.18-.22.31-.29.27.07.51.2.74.4.33.38.25.65-.25.83-.4.09-.71.31-.96.65-.07.09-.07.2-.02.31.42.56.51,1.2.33,1.9v.16c.07,0,.11-.02.18-.04.07-.04.16-.09.25-.11.2-.11.4-.2.62-.22.47.11.78.4.89.87.04.25-.07.36-.33.4-.25-.02-.51-.02-.8-.02-.09,0-.2,0-.31.02-.11,0-.25.04-.38.09-.11.04-.2.11-.22.25-.02.13-.04.27-.04.38,0,.69-.02,1.38-.07,2.1l.04.13.09-.09c.25-.33.51-.65.8-.94.07-.07.13-.09.22-.09.29.04.56.13.83.25.18.13.33.27.47.42.16.2.11.33-.13.42-.38.09-.69.25-.98.49l-.87.67c-.4.27-.58.62-.54,1.09.04.18.04.33,0,.51.02.07.04.11.07.16.07,0,.16-.02.22-.07.65-.51,1.25-1.05,1.85-1.63l.6-.56s.04-.02.09-.02v.11c-.13.18-.29.38-.47.58-.31.42-.62.83-.92,1.23-.54.58-1.07,1.18-1.63,1.76-.45.54-.89,1.07-1.34,1.58-.16.25-.29.47-.42.69-.04.04-.09.07-.11.07-.25-.04-.45-.13-.6-.29-.33-.47-.45-.98-.31-1.56.04-.65.11-1.32.16-1.99.2-1.05.42-2.12.67-3.17.04-.09.07-.18.09-.25.02-.07.09-.13.13-.22.07.09.11.18.13.27-.09.6-.2,1.2-.27,1.81-.13,1.03-.29,2.07-.45,3.1v.04c.02.13.07.25.11.36.09-.04.2-.11.33-.13l1.07-.87c.09-.07.13-.16.13-.25-.04-.87-.07-1.72-.07-2.57-.02-.89-.02-1.78,0-2.7l-.04-.25c-.09,0-.16.04-.22.09-.83.67-1.63,1.32-2.43,1.96-.18.18-.31.16-.4-.09l-.27-.62c.2-.22.38-.49.51-.76.71-1.32,1.54-2.57,2.45-3.75Zm.56.09l-.04-.18s-.07.07-.11.09l-1.16,1.56c-.29.38-.56.76-.83,1.14-.13.27-.27.54-.38.8-.02.09-.02.18,0,.29.09-.04.16-.09.25-.13l2.03-1.52c.09-.09.11-.2.11-.31.07-.4.09-.83.09-1.27l.04-.47Zm4.93.02c-.07-.22-.13-.47-.2-.67.04-.29.16-.56.33-.78.07,0,.13,0,.18.04.25.2.47.18.69-.04.65-.56,1.29-1.12,1.96-1.67l.78-.56c.33-.29.69-.29,1.05.02.89.69,1.38,1.61,1.45,2.74-.02.18-.07.36-.18.51l-.4,1.07c-.29.58-.56,1.18-.85,1.76-.22.45-.47.87-.76,1.27-.09.25-.2.49-.29.71-.4.54-.8,1.07-1.21,1.58-.16.25-.31.47-.47.69-.29.27-.56.54-.85.8-.11.09-.25.11-.38.07-.18-.07-.27-.02-.27.18.04.91.07,1.85.07,2.81l-.18,4.13c0,.36-.02.74-.07,1.09,0,.2-.02.4-.09.6-.11.04-.22.02-.33-.04-.11-.16-.18-.36-.16-.58.02-.2.07-.4.18-.58.09-.18.16-.33.18-.51.04-.8.04-1.63.02-2.45-.04-1.36-.09-2.74-.18-4.1l-.04-1.18c0-.47-.16-.89-.47-1.23-.09-.16-.18-.31-.27-.49l-.04-.16s.09.09.16.11c0,.04.02.09.07.09.13.09.27.16.42.2-.07-.11-.11-.25-.16-.38-.09-.18-.16-.36-.25-.56.13.16.25.29.38.42.04.02.07.04.09.09,0-.07,0-.11.02-.16v-2.45h.04v-2.41Zm4.64-2.3c-.13-.25-.33-.4-.6-.42-.27-.02-.49.07-.69.27-.36.38-.69.78-1.03,1.18-.31.4-.6.8-.89,1.25-.16.2-.27.45-.36.69-.09.47-.11.94-.11,1.43-.04,1.2-.09,2.43-.16,3.64-.02.22.09.36.29.45.18.11.33.07.47-.13.2-.25.4-.49.6-.78.8-1.18,1.38-2.45,1.78-3.81.2-.51.4-1.05.54-1.61.16-.56.25-1.12.25-1.67,0-.16-.04-.31-.09-.47Z" style="fill:#231815;"/><path d="m49.88,9.66s0-.11-.02-.18l-.13.09c-.54.49-1.09,1-1.67,1.49-.42.42-.85.42-1.23-.04-.16-.16-.29-.31-.4-.47-.04-.07-.07-.16-.04-.22.07-.2.16-.38.27-.56.07-.04.16-.07.27-.09.11,0,.27,0,.4-.04.87-.76,1.74-1.54,2.61-2.34.09-.07.11-.16.11-.27.02-.87.07-1.74.13-2.61.02-.36.04-.69.09-1.05.02-.18-.04-.31-.22-.4-.33-.18-.33-.4,0-.65.25-.22.49-.25.78-.04.22.16.45.33.65.54.09.13.13.29.09.45-.07.58-.13,1.16-.22,1.74v.62c-.02.16-.02.33,0,.51.02.16.11.31.27.45.22.2.27.47.11.78,0,.04-.02.07-.07.11-.25.25-.38.54-.45.87-.04.33-.07.69-.07,1.03-.07.71-.11,1.45-.13,2.16l.04.18c.07-.02.13-.07.2-.11.42-.38.87-.78,1.29-1.16.02-.02.04-.04.09-.07v.11c-.27.58-.58,1.14-.94,1.7-.49.71-.74,1.52-.71,2.41,0,1.2,0,2.41-.04,3.59.04.49.04.98,0,1.47,0,.29-.02.6-.09.89-.09.22-.25.27-.47.13-.22-.18-.4-.4-.58-.62-.07-.2-.11-.42-.11-.62-.04-.09-.02-.18.04-.27.16-.11.2-.27.16-.47,0-1.07,0-2.12-.02-3.17,0-.07,0-.13-.04-.2-.04.04-.09.09-.11.13-.49.65-.94,1.29-1.38,1.96-.18.22-.38.27-.58.09-.27-.25-.54-.51-.8-.76-.25-.25-.25-.54-.02-.83.09-.22.16-.45.2-.69.07-.2.18-.25.36-.13.18.13.36.09.47-.13.58-.62,1.16-1.25,1.74-1.85.07-.13.13-.27.13-.42.04-.49.04-1,0-1.49h.07v-1.54Zm7.25,9.53c-.74-.29-1.29-.76-1.72-1.41-.25-.31-.31-.69-.2-1.09.04-.31.07-.62.09-.91.09-.6.42-.92,1.03-.96l2.25-.09c.16-.02.29-.09.38-.2.27-.31.45-.67.54-1.07.09-.4.13-.8.13-1.2-.04-.11-.13-.2-.25-.27-.13-.04-.27-.07-.38-.02-.91.33-1.81.67-2.72,1-.29.13-.58.25-.91.33t-.04.04c-.11-.09-.2-.11-.27-.02-.07.09-.13.18-.16.27-.67.65-1.34,1.29-2.01,1.94-.27.22-.58.4-.89.56-.07.02-.11.04-.2.04.04-.04.07-.11.09-.16.45-.47.85-.98,1.23-1.52.51-.91,1.03-1.85,1.5-2.79.07-.13.13-.27.18-.4-.11.11-.22.2-.36.29-.16.18-.36.33-.54.51-.31.25-.6.22-.87-.04-.2-.27-.36-.54-.49-.83.02-.04.04-.07.04-.11.18-.29.42-.47.76-.54.04,0,.11-.04.13-.11.89-.83,1.78-1.67,2.7-2.52,0-.07.04-.09.09-.13.04-.13.09-.27.11-.38-.09-.04-.2-.07-.29-.07-.38-.04-.74-.07-1.07-.09-.11-.04-.2-.11-.27-.2l.22-.22c.47-.13.92-.25,1.36-.36.29-.04.42-.18.45-.47.2-1.18.4-2.36.56-3.55,0-.11-.02-.2-.07-.29-.02-.04-.07-.11-.09-.16-.04-.04-.07-.09-.04-.13.04-.13.16-.22.29-.25.29-.04.56-.04.85.02.29.04.54.2.74.4.25.25.29.51.11.8-.09.29-.18.58-.25.92-.16.49-.33,1-.49,1.54,0,.07-.02.11-.02.2.07,0,.11-.02.18-.04.11-.07.22-.13.31-.22.31-.29.67-.31,1.07-.07l.69.51c.09.04.11.13.11.25-.04.11-.13.16-.25.18-.78.2-1.54.4-2.32.58-.09.04-.16.11-.2.22-.25.58-.49,1.16-.69,1.74-.02.04-.04.11-.07.16h.16c.42-.11.85-.25,1.25-.36.16-.04.2-.11.11-.25-.13-.25-.25-.49-.31-.74v-.22c.07.02.16.04.25.09.27.25.56.49.83.76.07.07.13.09.25.07.65-.09,1.29-.16,1.96-.18.16,0,.33.04.47.13.16.09.29.18.45.29.13.07.25.2.31.33.09.09.11.2.11.31-.04.07-.13.11-.25.11l-1.21.04c-.27,0-.54,0-.78.02-.22,0-.22.07-.07.2.4.51.85.96,1.32,1.41.74.51,1.49,1.03,2.25,1.52.38.25.74.54,1.07.85.09.11.13.22.11.38-.09.13-.2.2-.36.22-.4,0-.78-.02-1.16-.11-.38-.07-.71-.25-1.05-.49-1.38-1-2.52-2.21-3.44-3.66-.09-.07-.18-.11-.31-.11-.74.2-1.47.4-2.21.6-.09.02-.16.07-.2.16-.45.83-.89,1.65-1.32,2.5,0,.07-.02.11-.07.13.07-.02.11-.02.16-.04.98-.54,1.96-1.07,2.94-1.56.11-.04.25-.04.36,0,.11.02.22.04.36.04.58.04,1.07.27,1.49.62.25.22.47.49.65.76.02.02.02.07,0,.13-.11.02-.18.09-.22.2-.02.11-.04.22-.04.31-.11.58-.2,1.16-.27,1.74-.16.62-.47,1.14-.96,1.54-.09.04-.18.07-.29.07-.98-.11-1.94-.25-2.9-.38-.18-.02-.27.04-.27.2l-.04,1.12c0,.13.07.25.18.33.62.25,1.27.45,1.92.58.65.13,1.32.18,1.99.11.27,0,.54-.04.78-.13.25-.09.47-.25.62-.45.33-.38.33-.78.02-1.18-.2-.31-.42-.62-.65-.96v-.13s.07.02.11.02c.16.16.31.33.51.49.62.62,1.27,1.23,1.94,1.81.33.36.31.67-.07.94-.16.13-.33.27-.47.42-.09.09-.18.16-.31.18l-1.52.29c-1.47,0-2.9-.25-4.26-.71Zm-3.48-8.59c.69-.36,1.36-.74,2.03-1.12.04-.04.09-.09.11-.13.11-.36.22-.69.31-1.03.02-.04.02-.09,0-.11-.04,0-.09.02-.09.04-.85.78-1.7,1.56-2.57,2.34-.02.04-.02.07-.02.09.02.02.04.02.04.04l.18-.13Zm2.45-4.55c-.25.16-.47.11-.67-.11-.2-.18-.38-.38-.47-.62-.13-.42-.31-.83-.56-1.18-.25-.38-.49-.74-.76-1.12,0-.02-.02-.07-.04-.11.07-.02.13-.02.2-.02.65.09,1.2.36,1.67.78.51.51.85,1.14.98,1.85-.09.2-.2.38-.36.54Zm6.47-3.35c.09.11.13.25.11.38-.4.74-1,1.2-1.83,1.41-.42.09-.83.2-1.23.31-.07.02-.13.02-.2.02.02-.04.04-.09.04-.13.25-.31.49-.62.71-.91.25-.31.49-.62.71-.92.04-.09.04-.16,0-.25-.02-.09-.07-.16-.11-.22.09-.04.2-.09.29-.11.07,0,.11-.02.16-.02,0-.04,0-.07.02-.09.45.16.87.33,1.32.54Z" style="fill:#231815;"/><path d="m70.39,9.59c.02-.91-.2-1.76-.69-2.54-.02-.04-.04-.09-.07-.13,0-.07,0-.13.02-.22.07,0,.13.02.2.02.51.36.96.8,1.27,1.32.27.31.42.67.47,1.07.07.38.11.78.11,1.2.02,1.65.02,3.3.02,4.93,0,1.2-.02,2.41-.07,3.59-.02.31-.02.62-.02.94-.11.2-.27.27-.51.16-.49-.27-.87-.65-1.09-1.16-.11-.16-.07-.29.11-.38.07-.09.09-.2.07-.31.04-1.43.11-2.83.18-4.24v-4.24Zm1.65-2.79c-.18-.13-.16-.25,0-.33l1-.67c.56-.33,1.07-.67,1.61-1.03.29-.18.58-.38.85-.62,0-.02.02-.04.07-.07v.11l-.36.83c-.07.13-.09.27-.09.4.04.51-.11.98-.45,1.36-.36.38-.78.58-1.32.6-.51-.02-.96-.2-1.32-.58Zm4.22-3.55c-.02-.33-.2-.45-.51-.33-.65.2-1.29.38-1.92.56-.04.02-.09.02-.13.02,0-.07,0-.11.04-.16.47-.4.96-.76,1.47-1.09.4-.22.83-.27,1.27-.13.42.13.78.38,1.05.76.09.11.13.25.13.38,0,.16.02.29.02.42l-.04,1.09c0,.07.02.13.07.18l.11-.11c.13-.09.27-.2.42-.33.02-.02.04-.02.09-.02,0,.04-.02.07-.04.07l-.22.29c-.42.54-.54,1.12-.33,1.76.02.11.02.22.02.33,0,.25-.11.29-.31.18-.44-.27-.82-.6-1.09-1.03-.02-.07-.04-.13-.04-.22.02-.38.04-.78.07-1.16-.02-.49-.04-.96-.11-1.45Zm8.52.71c-.02-.31-.11-.6-.25-.89-.13-.25-.33-.38-.62-.38-.29.02-.54.13-.71.33-.02.07-.09.13-.13.18-.33.11-.6.31-.78.6-.18.31-.31.6-.42.91-.02.11-.04.22-.02.33.04.42-.09.8-.38,1.12-.09.07-.2.11-.31.13-.8-.18-1.38-.62-1.74-1.36-.11-.29-.11-.6-.02-.94.09-.36.22-.71.36-1.09.09-.2.2-.22.31-.04.2.29.4.58.58.87.07.07.13.09.22.09.18-.07.36-.18.49-.31.56-.45,1.12-.91,1.65-1.41.29-.22.62-.42.98-.58.18-.11.38-.11.56-.04.2.07.36.16.54.29.58.31,1,.78,1.27,1.36.11.22.13.45.11.67,0,.22-.04.45-.11.67-.13.89-.2,1.76-.2,2.65s.02,1.78.02,2.68c0,1.9.04,3.77.13,5.67.04.54.04,1.07.02,1.58-.04.51-.09,1.03-.13,1.56,0,.4-.16.71-.45.98-.33.29-.65.56-.96.85-.16.04-.29.07-.45.02-.18-.07-.31-.16-.42-.27-.62-.58-1.25-1.18-1.83-1.76-.27-.25-.51-.49-.74-.76-.25-.33-.49-.67-.69-1.03,0-.09,0-.13.02-.18.04.02.09.04.11.09.36.31.67.65.98.98.2.2.45.33.69.4.27.09.54.11.8.11.29,0,.56-.04.83-.16.47-.16.71-.49.76-1,.04-1.25.07-2.41.07-3.48v-2.99c-.07-2.14-.11-4.31-.13-6.47Z" style="fill:#231815;"/></g></svg>